<?xml version="1.0" encoding="UTF-8" standalone="no"?>
<!-- Created with Inkscape (http://www.inkscape.org/) -->

<svg
   xmlns:dc="http://purl.org/dc/elements/1.1/"
   xmlns:cc="http://creativecommons.org/ns#"
   xmlns:rdf="http://www.w3.org/1999/02/22-rdf-syntax-ns#"
   xmlns:svg="http://www.w3.org/2000/svg"
   xmlns="http://www.w3.org/2000/svg"
   xmlns:sodipodi="http://sodipodi.sourceforge.net/DTD/sodipodi-0.dtd"
   xmlns:inkscape="http://www.inkscape.org/namespaces/inkscape"
   width="210mm"
   height="297mm"
   viewBox="0 0 210 297"
   version="1.1"
   id="svg8"
   inkscape:version="0.92.5 (2060ec1f9f, 2020-04-08)"
   sodipodi:docname="favicon.svg">
  <defs
     id="defs2" />
  <sodipodi:namedview
     id="base"
     pagecolor="#7775f1"
     bordercolor="#666666"
     borderopacity="1.0"
     inkscape:pageopacity="1"
     inkscape:pageshadow="2"
     inkscape:zoom="0.5"
     inkscape:cx="112.94877"
     inkscape:cy="697.85317"
     inkscape:document-units="mm"
     inkscape:current-layer="layer1"
     showgrid="false"
     inkscape:snap-object-midpoints="true"
     inkscape:snap-smooth-nodes="true"
     inkscape:window-width="1366"
     inkscape:window-height="698"
     inkscape:window-x="0"
     inkscape:window-y="34"
     inkscape:window-maximized="1" />
  <metadata
     id="metadata5">
    <rdf:RDF>
      <cc:Work
         rdf:about="">
        <dc:format>image/svg+xml</dc:format>
        <dc:type
           rdf:resource="http://purl.org/dc/dcmitype/StillImage" />
        <dc:title />
      </cc:Work>
    </rdf:RDF>
  </metadata>
  <g
     inkscape:label="Capa 1"
     inkscape:groupmode="layer"
     id="layer1">
    <path
       style="fill:#00154f;fill-opacity:1;stroke:#00154f;stroke-width:10.04859924px;stroke-linecap:butt;stroke-linejoin:miter;stroke-opacity:1"
       d="M 9.5532254,172.28076 H 95.344039 l -0.203596,-60.92116 -0.0268,-3.20822 -0.127642,-3.12206 -0.0766,-2.02787 -0.152537,-2.4317 -0.305671,-3.122008 -0.341262,-2.918513 -0.493758,-3.445591 -0.493781,-2.513238 -0.381559,-1.986159 -0.493758,-2.107808 -0.455488,-1.824224 -0.417173,-1.378224 -0.38158,-1.134969 -0.608637,-1.742995 -0.378881,-1.135035 -0.417172,-1.094641 -1.443068,-3.121259 -0.911142,-1.864554 -0.911074,-1.621434 -0.949352,-1.499805 -0.455487,-0.526969 -1.178371,-1.621412 -2.280367,-2.71605 -1.633921,-1.581036 -1.369224,-1.094398 -1.595777,-1.256554 -1.862983,-1.175652 -2.051369,-1.216243 -1.974909,-0.931894 -1.93938,-0.810292 -1.824838,-0.689209 -1.672067,-0.446482 -1.748463,-0.446481 -2.356764,-0.48666 -2.2422,-0.282425 -2.318534,-0.244302 -1.101997,-0.04372 -1.710296,-0.120665 h -1.748462 l -1.025686,-0.04372 -1.443067,0.04372 -1.369226,0.08242 -1.672065,0.203075 -1.331079,0.120664 -1.519445,0.203076 -1.331015,0.282425 -1.748527,0.28247 -1.292849,0.32562 -1.519444,0.486594 -1.595753,0.527034 -0.987456,0.405844 -1.025684,0.364705 -0.758372,0.364682 -1.025684,0.446482 -1.292913,0.729584 -1.02562,0.567628 -0.799155,0.567649 -0.758434,0.486616 -0.684634,0.446482 -0.951842,0.729585 -0.758455,0.607979 -0.875527,0.689231 -0.94931,0.932967 -0.911143,0.931894 -1.025599,1.013934 -0.49376,0.608265 -0.570366,0.689253 -0.722821,0.972225 -0.493781,0.648617 -1.063829,1.459434 -0.834831,1.378221 -0.987452,1.742951 -0.607965,1.135015 -0.760923,1.621432 -0.684635,1.418533 -0.646254,1.702618 -0.493759,1.296951 -0.381581,1.216243 -0.455465,1.256619 -0.381561,1.256618 -0.38158,1.499762 -0.229083,0.76996 -0.229083,1.175345 -0.417173,1.70264 -0.264676,1.499806 -0.455486,2.432226 -0.305648,2.027038 -0.264696,2.310642 -0.229064,1.702095 -0.203597,2.514022 -0.1780677,2.06691 -0.076583,2.27082 -0.1270114,1.94526 z"
       id="path3807-2-6"
       inkscape:connector-curvature="0" />
    <path
       style="fill:#00154f;fill-opacity:1;stroke:#00154f;stroke-width:11.95234489px;stroke-linecap:butt;stroke-linejoin:miter;stroke-opacity:1"
       d="m 83.39738,171.15688 h 107.09039 l -0.28684,-69.04843 -0.0268,-3.636696 -0.17004,-3.538577 -0.0853,-2.298119 -0.19811,-2.756118 -0.36881,-3.538582 -0.42524,-3.307898 -0.61872,-3.905319 -0.61534,-2.848693 -0.47632,-2.25112 -0.61535,-2.388878 -0.57034,-2.06774 -0.51861,-1.562128 -0.47631,-1.286566 -0.75742,-1.975208 -0.47631,-1.286589 -0.51863,-1.240463 -1.804,-3.537642 -1.1403,-2.113077 -1.14034,-1.837974 -1.18562,-1.700236 -0.57036,-0.597268 -1.47216,-1.838084 -2.8485,-3.078459 -2.04229,-1.791916 -1.71043,-1.240092 -1.99124,-1.424347 -2.32311,-1.33269 -2.56136,-1.378224 -2.46782,-1.05621 -2.41956,-0.918414 -2.27776,-0.781216 -2.08762,-0.505619 -2.18136,-0.505616 -2.9429,-0.551752 -2.79967,-0.321133 -2.89383,-0.275028 -1.37858,-0.04689 -2.13589,-0.136031 h -2.18417 l -1.2821,-0.04688 -1.80402,0.04688 -1.7076,0.09163 -2.08482,0.233559 -1.65945,0.135966 -1.89759,0.233557 -1.65936,0.321137 -2.18136,0.321133 -1.61396,0.367555 -1.8976,0.551751 -1.9913,0.597593 -1.23395,0.460082 -1.28209,0.409806 -0.94735,0.409801 -1.28216,0.505611 -1.61397,0.826773 -1.28212,0.643414 -0.99562,0.643413 -0.94744,0.551758 -0.85375,0.505613 -1.18854,0.82675 -0.94735,0.688969 -1.08923,0.781238 -1.1857,1.057655 -1.14028,1.056231 -1.282103,1.149354 -0.61871,0.689536 -0.71205,0.781219 -0.90207,1.102049 -0.61869,0.735115 -1.32745,1.65407 -1.0439,1.562192 -1.23395,1.975209 -0.7601,1.286522 -0.94749,1.838039 -0.85371,1.60766 -0.80561,1.92972 -0.6187,1.469859 -0.474289,1.378223 -0.570341,1.424369 -0.476293,1.424326 -0.476311,1.700236 -0.283495,0.87259 -0.283475,1.332689 -0.521988,1.929981 -0.331852,1.700192 -0.569691,2.756426 -0.38023,2.297243 -0.331852,2.618687 -0.283495,1.929041 -0.227057,2.849589 -0.227058,2.34282 -0.113507,2.573986 -0.141781,2.204969 z"
       id="path3807-0-0-1"
       inkscape:connector-curvature="0" />
    <ellipse
       style="fill:#00154f;fill-opacity:1;stroke-width:7.56085157"
       id="path3717-7-2-2"
       cx="-192.21075"
       cy="52.469444"
       transform="rotate(-90)"
       rx="31.137365"
       ry="28.335382" />
    <ellipse
       style="fill:#00154f;fill-opacity:1;stroke-width:7.56085157"
       id="path3717-7-9-3-9"
       cx="-192.0901"
       cy="149.14818"
       transform="rotate(-90)"
       rx="31.137365"
       ry="28.335382" />
    <path
       style="fill:#f2bc94;fill-opacity:0.75294118;stroke:none;stroke-width:7.09794807px;stroke-linecap:butt;stroke-linejoin:miter;stroke-opacity:1"
       d="m 23.530064,156.68459 h 57.842727 l -0.15254,-45.08335 -0.0211,-2.37428 -0.0766,-2.3112 -0.0538,-1.5006 -0.102107,-1.79952 -0.203596,-2.31062 -0.229083,-2.159971 -0.333203,-2.5497 -0.335902,-1.85992 -0.257292,-1.469595 -0.333202,-1.559877 -0.307675,-1.349936 -0.28282,-1.019727 L 78.42656,88.4961 78.01677,87.205991 77.75948,86.365799 77.47666,85.55577 76.501907,83.24598 75.888563,81.866139 75.27254,80.666377 74.63099,79.556305 74.323316,79.168167 73.529184,77.968384 71.992018,75.95833 70.890022,74.788495 69.966115,73.978467 68.889563,73.048518 67.634817,72.178681 66.250338,71.278615 64.916706,70.589098 63.611092,69.989338 62.381853,69.479289 61.254329,69.15004 60.076021,68.820769 58.48786,68.459716 56.976139,68.250738 55.413424,68.069523 54.670307,68.038263 53.51738,67.947543 h -1.178371 l -0.692292,-0.03126 -0.974754,0.03126 -0.921291,0.06296 -1.12744,0.14799 -0.89591,0.09072 -1.025664,0.147989 -0.895825,0.208321 -1.178392,0.208322 -0.870423,0.238619 -1.025622,0.361033 -1.076594,0.388662 -0.667079,0.302165 -0.692208,0.271955 -0.511227,0.271955 -0.692294,0.32927 -0.870422,0.539626 -0.692208,0.419921 -0.536756,0.419922 -0.511229,0.361033 -0.460846,0.329271 -0.64155,0.539625 -0.511229,0.449606 -0.590495,0.51005 -0.641572,0.690631 -0.616022,0.689516 -0.692271,0.750438 -0.333202,0.450133 -0.384259,0.510028 -0.486374,0.719442 -0.335904,0.480341 -0.717736,1.080103 -0.562286,1.019682 -0.667079,1.290108 -0.409789,0.840195 -0.511902,1.199784 -0.460847,1.049936 -0.435296,1.260158 -0.335902,0.959877 -0.257292,0.900045 -0.308349,0.92997 -0.257291,0.92995 -0.257292,1.110008 -0.152539,0.569856 -0.152539,0.869835 -0.282147,1.26016 -0.178067,1.110028 -0.307673,1.799786 -0.203597,1.500331 -0.178068,1.709841 -0.152539,1.25985 -0.12701,1.86075 -0.127012,1.52971 -0.0538,1.6807 -0.0766,1.43938 z"
       id="path3807-75-8-3"
       inkscape:connector-curvature="0" />
    <path
       style="fill:#f2bc94;fill-opacity:0.75444839;stroke:none;stroke-width:8.06807518px;stroke-linecap:butt;stroke-linejoin:miter;stroke-opacity:1"
       d="m 104.70161,154.87067 h 64.49549 l -0.17808,-52.24082 -0.021,-2.751198 -0.0766,-2.677294 -0.0766,-1.738838 -0.10207,-2.085216 -0.22907,-2.677294 -0.2573,-2.502933 -0.37149,-2.954562 -0.37418,-2.155201 -0.2949,-1.702979 -0.37421,-1.807598 -0.33118,-1.564462 -0.3312,-1.181683 -0.29489,-0.97379 -0.4555,-1.494766 -0.29491,-0.973789 -0.33118,-0.938523 -1.08426,-2.676746 -0.68462,-1.599204 -0.68461,-1.390103 -0.71262,-1.286324 -0.3312,-0.449894 -0.88568,-1.390147 -1.71279,-2.329239 -1.22931,-1.355974 -1.03071,-0.938543 -1.19871,-1.077565 -1.39982,-1.00785 -1.54483,-1.043188 -1.48635,-0.799156 -1.45573,-0.694766 -1.37188,-0.590692 -1.25723,-0.381433 -1.3132,-0.38143 -1.77142,-0.420007 -1.68479,-0.240154 -1.74339,-0.207461 -0.82712,-0.0326 -1.28781,-0.107153 h -1.31328 l -0.77114,-0.0326 -1.08419,0.0326 -1.0308,0.07113 -1.25723,0.174859 -1.00022,0.10692 -1.14272,0.174859 -1.00022,0.240176 -1.31327,0.240154 -0.9722,0.276014 -1.14271,0.41948 -1.19868,0.449895 -0.7432,0.351545 -0.77113,0.313517 -0.57034,0.313493 -0.77114,0.381431 -0.97222,0.625415 -0.7712,0.486826 -0.60058,0.486849 -0.57036,0.420006 -0.5139,0.381432 -0.71256,0.625346 -0.57035,0.521068 -0.65902,0.590717 -0.71263,0.80025 -0.68462,0.79916 -0.77114,0.869421 -0.3715,0.521615 -0.42994,0.590671 -0.53943,0.83349 -0.3742,0.556063 -0.79909,1.251674 -0.62878,1.181615 -0.74321,1.494813 -0.45547,0.973834 -0.57034,1.390102 -0.51391,1.216953 -0.48637,1.460091 -0.3742,1.112239 -0.2949,1.043166 -0.33118,1.077563 -0.29559,1.07759 -0.29492,1.286325 -0.17809,0.660707 -0.17805,1.007917 -0.3312,1.460024 -0.17807,1.286393 -0.3312,2.085483 -0.22906,1.738545 -0.17807,1.981321 -0.17806,1.459817 -0.15255,2.156343 -0.15253,1.772306 -0.0766,1.947309 -0.0766,1.668244 z"
       id="path3807-75-9-9-1"
       inkscape:connector-curvature="0"
       inkscape:transform-center-y="16.489001"
       inkscape:transform-center-x="1.9723379e-06" />
    <ellipse
       style="fill:#f4af1b;fill-opacity:1;stroke:none;stroke-width:8.53453636;stroke-opacity:1"
       id="path3744-6-2-2-7-9"
       cx="-192.21075"
       cy="52.469444"
       rx="11.326428"
       ry="10.765893"
       transform="rotate(-90)" />
    <ellipse
       style="fill:#f4af1b;fill-opacity:1;stroke:none;stroke-width:8.53453636;stroke-opacity:1"
       id="path3744-6-2-2-7-3-4"
       cx="-192.0901"
       cy="149.14818"
       rx="11.326428"
       ry="10.765893"
       transform="rotate(-90)" />
    <rect
       style="fill:#fcfaff;fill-opacity:1;stroke:#000037;stroke-width:0.38;stroke-miterlimit:4;stroke-dasharray:none;stroke-opacity:0.9372549"
       id="rect23"
       width="201.6125"
       height="225.95416"
       x="4.2972536"
       y="20.808105" />
    <ellipse
       style="fill:#00154f;fill-opacity:1;stroke-width:7.56085157"
       id="path3717-7-2-2-3"
       cx="-192.21077"
       cy="52.469448"
       transform="rotate(-90)"
       rx="31.137365"
       ry="28.335382" />
    <ellipse
       style="fill:#00154f;fill-opacity:1;stroke-width:7.56085157"
       id="path3717-7-9-3-9-6"
       cx="-192.0901"
       cy="149.14819"
       transform="rotate(-90)"
       rx="31.137365"
       ry="28.335382" />
    <path
       style="fill:#f2bc94;fill-opacity:0.75444839;stroke:none;stroke-width:8.06807518px;stroke-linecap:butt;stroke-linejoin:miter;stroke-opacity:1"
       d="m 104.70161,154.87068 h 64.4955 l -0.17808,-52.24083 -0.021,-2.751196 -0.0766,-2.677292 -0.0766,-1.738839 -0.10207,-2.085215 -0.22907,-2.677295 -0.2573,-2.502932 -0.37149,-2.954563 -0.37418,-2.1552 -0.2949,-1.70298 -0.37421,-1.807597 -0.33118,-1.564463 -0.3312,-1.181683 -0.29489,-0.97379 -0.4555,-1.494766 -0.29491,-0.973789 -0.33118,-0.938523 -1.08426,-2.676746 -0.68462,-1.599204 -0.68461,-1.390103 -0.71262,-1.286324 -0.3312,-0.449894 -0.88568,-1.390147 -1.71279,-2.329239 -1.22931,-1.355974 -1.03071,-0.938543 -1.19871,-1.077565 -1.39982,-1.00785 -1.54484,-1.043188 -1.48635,-0.799156 -1.45573,-0.694766 -1.37188,-0.590692 -1.25723,-0.381433 -1.3132,-0.38143 -1.77142,-0.420007 -1.68479,-0.240154 -1.74339,-0.207461 -0.82712,-0.0326 -1.28781,-0.107153 h -1.31328 l -0.77113,-0.0326 -1.08419,0.0326 -1.0308,0.07113 -1.25723,0.174859 -1.00022,0.10692 -1.14272,0.174859 -1.00022,0.240176 -1.31327,0.240154 -0.9722,0.276014 -1.14271,0.41948 -1.19868,0.449895 -0.7432,0.351545 -0.77114,0.313517 -0.57034,0.313493 -0.77114,0.381431 -0.97222,0.625415 -0.7712,0.486826 -0.60058,0.486849 -0.57036,0.420006 -0.5139,0.381432 -0.71256,0.625346 -0.57035,0.521068 -0.65902,0.590717 -0.71263,0.80025 -0.68462,0.79916 -0.77114,0.869421 -0.3715,0.521615 -0.42994,0.590671 -0.53943,0.83349 -0.3742,0.556063 -0.79909,1.251674 -0.62878,1.181615 -0.74321,1.494813 -0.45547,0.973834 -0.57034,1.390102 -0.51391,1.216953 -0.48637,1.460091 -0.3742,1.112239 -0.2949,1.043166 -0.33118,1.077563 -0.29559,1.07759 -0.29492,1.286326 -0.17809,0.660707 -0.17805,1.007917 -0.3312,1.460023 -0.17807,1.286394 -0.3312,2.085483 -0.22906,1.738545 -0.17807,1.981319 -0.17806,1.459818 -0.15255,2.156343 -0.15253,1.772306 -0.0766,1.94731 -0.0766,1.668243 z"
       id="path3807-75-9-9-1-5"
       inkscape:connector-curvature="0"
       inkscape:transform-center-y="16.489001"
       inkscape:transform-center-x="1.9723379e-06" />
    <ellipse
       style="fill:#ffffff;fill-opacity:1;stroke:none;stroke-width:8.53453636;stroke-opacity:1"
       id="path3744-6-2-2-7-9-3"
       cx="-192.21077"
       cy="52.469448"
       rx="11.326428"
       ry="10.765893"
       transform="rotate(-90)" />
    <ellipse
       style="fill:#ffffff;fill-opacity:1;stroke:none;stroke-width:8.53453636;stroke-opacity:1"
       id="path3744-6-2-2-7-3-4-5"
       cx="-192.0901"
       cy="149.14819"
       rx="11.326428"
       ry="10.765893"
       transform="rotate(-90)" />
    <path
       style="fill:#00154f;fill-opacity:1;stroke:none;stroke-width:9.67223549px;stroke-linecap:butt;stroke-linejoin:miter;stroke-opacity:0.9372549"
       d="m 11.594884,172.28076 h 83.749155 l -0.220855,-57.81926 -0.0306,-3.04503 -0.110907,-2.9641 -0.07791,-1.92452 -0.147825,-2.30788 -0.294793,-2.96337 -0.33168,-2.770157 -0.482445,-3.269983 -0.486346,-2.385342 -0.372525,-1.884744 -0.482427,-2.00054 -0.445483,-1.731294 -0.409496,-1.307788 -0.372544,-1.077556 -0.593334,-1.654558 -0.372516,-1.077545 -0.409497,-1.038858 -1.411314,-2.962301 -0.888042,-1.769644 -0.891934,-1.53869 -0.928887,-1.423664 -0.445464,-0.497787 -1.149806,-1.538718 -2.225632,-2.577889 -1.595546,-1.50031 -1.337708,-1.038859 -1.558711,-1.192657 -1.816724,-1.115564 -2.004556,-1.154331 -1.930933,-0.884305 -1.890377,-0.76919 -1.779788,-0.654137 -1.632525,-0.422261 -1.706048,-0.422289 -2.29946,-0.463049 -2.188784,-0.268014 -2.262612,-0.232408 -1.075946,-0.04009 -1.669301,-0.116348 h -1.70608 l -1.002352,-0.04009 -1.411318,0.04009 -1.333914,0.08074 -1.632394,0.189797 -1.297168,0.116348 -1.485043,0.189796 -1.297037,0.267171 -1.706178,0.267172 -1.260261,0.306028 -1.484971,0.463025 -1.55877,0.498458 -0.96585,0.387525 -1.002234,0.348782 -0.740199,0.348782 -1.002351,0.422288 -1.26026,0.692068 -1.002235,0.538548 -0.777163,0.538548 -0.740198,0.463025 -0.66724,0.422288 -0.928885,0.692069 -0.740198,0.576618 -0.854971,0.654137 -0.928915,0.885733 -0.891921,0.884303 -1.002321,0.962434 -0.482448,0.577295 -0.556346,0.654109 -0.704219,0.922683 -0.486342,0.616037 -1.039198,1.38523 -0.814112,1.307736 -0.96585,1.654562 -0.593325,1.077548 -0.741183,1.538721 -0.66724,1.346539 -0.630261,1.616148 -0.486342,1.231039 -0.372523,1.154311 -0.446453,1.192686 -0.372525,1.192659 -0.372524,1.423568 -0.220859,0.730848 -0.220859,1.115566 -0.408518,1.616149 -0.257824,1.423602 -0.445468,2.308225 -0.294788,1.924167 -0.257808,2.192871 -0.22086,1.615751 -0.183895,2.38641 -0.183909,1.96185 -0.0779,2.15549 -0.110907,1.84601 z"
       id="path3807-75-8-3-7-6"
       inkscape:connector-curvature="0" />
    <path
       style="fill:#00154f;fill-opacity:1;stroke:none;stroke-width:11.53818607px;stroke-linecap:butt;stroke-linejoin:miter;stroke-opacity:0.9372549"
       d="m 87.920837,172.3638 h 98.057033 l -0.25858,-70.27414 -0.0358,-3.70097 -0.12986,-3.602598 -0.0912,-2.339082 -0.17308,-2.805022 -0.34515,-3.601712 -0.38836,-3.366879 -0.56486,-3.974369 -0.56944,-2.899167 -0.43616,-2.290746 -0.56485,-2.431477 -0.52159,-2.104229 -0.47946,-1.589501 -0.43618,-1.309678 -0.6947,-2.01097 -0.43616,-1.309654 -0.47946,-1.262641 -1.65242,-3.600411 -1.03976,-2.150839 -1.04432,-1.870141 -1.08758,-1.730343 -0.52156,-0.605007 -1.34624,-1.870177 -2.60587,-3.133195 -1.86813,-1.823493 -1.56624,-1.262641 -1.82501,-1.449572 -2.1271,-1.355863 -2.34701,-1.402985 -2.26082,-1.0748 -2.21333,-0.934882 -2.08385,-0.795036 -1.91144,-0.513232 -1.9975,-0.513243 -2.69231,-0.562796 -2.56273,-0.325755 -2.64915,-0.282473 -1.25977,-0.04874 -1.95449,-0.141401 h -1.99755 l -1.17359,-0.04874 -1.65244,0.04874 -1.56179,0.09808 -1.91127,0.230673 -1.51879,0.141413 -1.73874,0.230685 -1.51863,0.324722 -1.99767,0.324721 -1.47556,0.371952 -1.73867,0.562759 -1.82507,0.605834 -1.13086,0.471008 -1.17347,0.423911 -0.86665,0.423911 -1.1736,0.513256 -1.47556,0.841149 -1.17346,0.654547 -0.90993,0.654559 -0.86665,0.562772 -0.78124,0.513256 -1.08758,0.841137 -0.86666,0.70083 -1.00103,0.795049 -1.08761,1.076525 -1.0443,1.0748 -1.17356,1.169748 -0.56487,0.701644 -0.6514,0.795012 -0.82453,1.121448 -0.56942,0.748729 -1.216741,1.683623 -0.9532,1.589442 -1.130854,2.010969 -0.69469,1.309666 -0.867808,1.870177 -0.781233,1.636599 -0.737936,1.964286 -0.56943,1.496219 -0.436165,1.402961 -0.522726,1.449595 -0.436168,1.449572 -0.436167,1.730222 -0.258591,0.888283 -0.258591,1.355876 -0.47831,1.964274 -0.301871,1.73027 -0.521573,2.805435 -0.34515,2.338657 -0.301853,2.665235 -0.258592,1.9638 -0.215312,2.900468 -0.215328,2.384453 -0.09121,2.619806 -0.129854,2.24366 z"
       id="path3807-75-8-3-7-6-9"
       inkscape:connector-curvature="0" />
    <path
       style="fill:#ffffff;fill-opacity:1;stroke:none;stroke-width:7.09794807px;stroke-linecap:butt;stroke-linejoin:miter;stroke-opacity:0.9372549"
       d="m 24.5481,159.74235 h 57.842724 l -0.152537,-45.08335 -0.02109,-2.37429 -0.0766,-2.3112 -0.0538,-1.5006 -0.1021,-1.79952 -0.203597,-2.31062 -0.229081,-2.15997 -0.333211,-2.549685 -0.335899,-1.85993 -0.257292,-1.46959 -0.333197,-1.55988 -0.307682,-1.34993 -0.282821,-1.01973 -0.25731,-0.8402 -0.409787,-1.2901 -0.257289,-0.84019 -0.282821,-0.81003 -0.974749,-2.30979 -0.613341,-1.37984 -0.616029,-1.19976 -0.641549,-1.11008 -0.30767,-0.38814 -0.794131,-1.19978 -1.537169,-2.01005 -1.101992,-1.16984 -0.923909,-0.81002 -1.07655,-0.92995 -1.254749,-0.86984 -1.38448,-0.900067 -1.33363,-0.689517 -1.305626,-0.59976 -1.229241,-0.510049 -1.12753,-0.329249 -1.178311,-0.329271 -1.588159,-0.361053 -1.511721,-0.208978 -1.562711,-0.181215 -0.743119,-0.03126 -1.15293,-0.09072 h -1.178369 l -0.692291,-0.03126 -0.974748,0.03126 -0.921292,0.06296 -1.12744,0.14799 -0.89591,0.09072 -1.02567,0.147989 -0.89582,0.208321 -1.1784,0.208322 -0.87042,0.238619 -1.02562,0.361033 -1.07659,0.388662 -0.66708,0.302165 -0.69221,0.271955 -0.51123,0.271955 -0.69229,0.32927 -0.870419,0.539628 -0.69221,0.41992 -0.536761,0.41992 -0.511229,0.36103 -0.460841,0.32928 -0.641549,0.53962 -0.51123,0.44961 -0.590501,0.51005 -0.64157,0.69063 -0.61602,0.68951 -0.692269,0.75044 -0.33321,0.45013 -0.384254,0.51003 -0.486374,0.71944 -0.335904,0.48035 -0.717736,1.0801 -0.562285,1.01968 -0.66708,1.29011 -0.409789,0.84019 -0.511903,1.19979 -0.460847,1.04993 -0.435295,1.26016 -0.335903,0.95988 -0.257292,0.90004 -0.308349,0.92997 -0.257291,0.92995 -0.257292,1.11001 -0.152539,0.56985 -0.152539,0.86984 -0.282147,1.26016 -0.178067,1.11003 -0.307673,1.799775 -0.203597,1.50033 -0.178068,1.70985 -0.152539,1.25984 -0.12701,1.86075 -0.127012,1.52971 -0.0538,1.6807 -0.0766,1.43938 z"
       id="path3807-75-8-3-7-2-1"
       inkscape:connector-curvature="0" />
    <path
       style="fill:#ffffff;fill-opacity:1;stroke:none;stroke-width:8.91472626px;stroke-linecap:butt;stroke-linejoin:miter;stroke-opacity:0.9372549"
       d="m 101.15618,159.75092 h 71.58635 l -0.18879,-57.46256 -0.0261,-3.026233 -0.0948,-2.945822 -0.0666,-1.912643 -0.12636,-2.293642 -0.25197,-2.945082 -0.28351,-2.753066 -0.41238,-3.249797 -0.41571,-2.37064 -0.31844,-1.873117 -0.41235,-1.988201 -0.38079,-1.7206 -0.35003,-1.299733 -0.31845,-1.070907 -0.50714,-1.644355 -0.31843,-1.070894 -0.35001,-1.032452 -1.20636,-2.944024 -0.75907,-1.758724 -0.7624,-1.529197 -0.79399,-1.414879 -0.38077,-0.494717 -0.98282,-1.529222 -1.9024,-2.561993 -1.36383,-1.491048 -1.14343,-1.032452 -1.33235,-1.185301 -1.55288,-1.108672 -1.71344,-1.147216 -1.6505,-0.878852 -1.61585,-0.764446 -1.52131,-0.650102 -1.39544,-0.419657 -1.45828,-0.419683 -1.96551,-0.460189 -1.87091,-0.266363 -1.93402,-0.230967 -0.91969,-0.0399 -1.42687,-0.115605 h -1.45835 l -0.85678,-0.03989 -1.20635,0.03989 -1.1402,0.0803 -1.39532,0.188626 -1.10878,0.115605 -1.26937,0.188626 -1.10867,0.265521 -1.4584,0.265522 -1.07723,0.304142 -1.26931,0.460163 -1.33239,0.49538 -0.82558,0.385142 -0.85668,0.346623 -0.6327,0.346637 -0.85678,0.419682 -1.07724,0.687792 -0.85668,0.535237 -0.6643,0.535223 -0.6327,0.460164 -0.57033,0.419683 -0.79399,0.687804 -0.6327,0.573054 -0.7308,0.650102 -0.79401,0.880267 -0.76239,0.878852 -0.85676,0.956499 -0.41238,0.57373 -0.47555,0.650076 -0.60193,0.916988 -0.41572,0.612234 -0.88827,1.37668 -0.69589,1.299669 -0.82558,1.644355 -0.50716,1.070907 -0.63353,1.529222 -0.57035,1.338238 -0.53871,1.606168 -0.41573,1.223449 -0.31842,1.147191 -0.38162,1.185326 -0.31842,1.1853 -0.31842,1.414803 -0.18879,0.726322 -0.18878,1.108685 -0.34919,1.606182 -0.22037,1.414828 -0.38078,2.293973 -0.25197,1.912298 -0.22038,2.179337 -0.18878,1.605786 -0.15719,2.371685 -0.15719,1.949746 -0.0666,2.142195 -0.0948,1.834613 z"
       id="path3807-75-8-3-7-2-2"
       inkscape:connector-curvature="0" />
  </g>
</svg>
