<?xml version="1.0" encoding="UTF-8" standalone="no"?>
<!-- Created with Inkscape (http://www.inkscape.org/) -->

<svg
   xmlns:dc="http://purl.org/dc/elements/1.1/"
   xmlns:cc="http://creativecommons.org/ns#"
   xmlns:rdf="http://www.w3.org/1999/02/22-rdf-syntax-ns#"
   xmlns:svg="http://www.w3.org/2000/svg"
   xmlns="http://www.w3.org/2000/svg"
   xmlns:sodipodi="http://sodipodi.sourceforge.net/DTD/sodipodi-0.dtd"
   xmlns:inkscape="http://www.inkscape.org/namespaces/inkscape"
   width="210mm"
   height="297mm"
   viewBox="0 0 210 297"
   version="1.1"
   id="svg8"
   inkscape:version="0.92.5 (2060ec1f9f, 2020-04-08)"
   sodipodi:docname="logo-bondi.svg">
  <defs
     id="defs2" />
  <sodipodi:namedview
     id="base"
     pagecolor="#7775f1"
     bordercolor="#666666"
     borderopacity="1.0"
     inkscape:pageopacity="1"
     inkscape:pageshadow="2"
     inkscape:zoom="0.25"
     inkscape:cx="-448.72682"
     inkscape:cy="338.09437"
     inkscape:document-units="mm"
     inkscape:current-layer="layer1"
     showgrid="false"
     inkscape:snap-object-midpoints="true"
     inkscape:snap-smooth-nodes="true"
     inkscape:window-width="1366"
     inkscape:window-height="698"
     inkscape:window-x="0"
     inkscape:window-y="34"
     inkscape:window-maximized="1" />
  <metadata
     id="metadata5">
    <rdf:RDF>
      <cc:Work
         rdf:about="">
        <dc:format>image/svg+xml</dc:format>
        <dc:type
           rdf:resource="http://purl.org/dc/dcmitype/StillImage" />
        <dc:title></dc:title>
      </cc:Work>
    </rdf:RDF>
  </metadata>
  <g
     inkscape:label="Capa 1"
     inkscape:groupmode="layer"
     id="layer1">
    <path
       style="fill:#00154f;fill-opacity:1;stroke:#00154f;stroke-width:10.04859924px;stroke-linecap:butt;stroke-linejoin:miter;stroke-opacity:1"
       d="M 9.5532254,172.28076 H 95.344039 l -0.203596,-60.92116 -0.0268,-3.20822 -0.127642,-3.12206 -0.0766,-2.02787 -0.152537,-2.4317 -0.305671,-3.122008 -0.341262,-2.918513 -0.493758,-3.445591 -0.493781,-2.513238 -0.381559,-1.986159 -0.493758,-2.107808 -0.455488,-1.824224 -0.417173,-1.378224 -0.38158,-1.134969 -0.608637,-1.742995 -0.378881,-1.135035 -0.417172,-1.094641 -1.443068,-3.121259 -0.911142,-1.864554 -0.911074,-1.621434 -0.949352,-1.499805 -0.455487,-0.526969 -1.178371,-1.621412 -2.280367,-2.71605 -1.633921,-1.581036 -1.369224,-1.094398 -1.595777,-1.256554 -1.862983,-1.175652 -2.051369,-1.216243 -1.974909,-0.931894 -1.93938,-0.810292 -1.824838,-0.689209 -1.672067,-0.446482 -1.748463,-0.446481 -2.356764,-0.48666 -2.2422,-0.282425 -2.318534,-0.244302 -1.101997,-0.04372 -1.710296,-0.120665 h -1.748462 l -1.025686,-0.04372 -1.443067,0.04372 -1.369226,0.08242 -1.672065,0.203075 -1.331079,0.120664 -1.519445,0.203076 -1.331015,0.282425 -1.748527,0.28247 -1.292849,0.32562 -1.519444,0.486594 -1.595753,0.527034 -0.987456,0.405844 -1.025684,0.364705 -0.758372,0.364682 -1.025684,0.446482 -1.292913,0.729584 -1.02562,0.567628 -0.799155,0.567649 -0.758434,0.486616 -0.684634,0.446482 -0.951842,0.729585 -0.758455,0.607979 -0.875527,0.689231 -0.94931,0.932967 -0.911143,0.931894 -1.025599,1.013934 -0.49376,0.608265 -0.570366,0.689253 -0.722821,0.972225 -0.493781,0.648617 -1.063829,1.459434 -0.834831,1.378221 -0.987452,1.742951 -0.607965,1.135015 -0.760923,1.621432 -0.684635,1.418533 -0.646254,1.702618 -0.493759,1.296951 -0.381581,1.216243 -0.455465,1.256619 -0.381561,1.256618 -0.38158,1.499762 -0.229083,0.76996 -0.229083,1.175345 -0.417173,1.70264 -0.264676,1.499806 -0.455486,2.432226 -0.305648,2.027038 -0.264696,2.310642 -0.229064,1.702095 -0.203597,2.514022 -0.1780677,2.06691 -0.076583,2.27082 -0.1270114,1.94526 z"
       id="path3807-2-6"
       inkscape:connector-curvature="0" />
    <path
       style="fill:#00154f;fill-opacity:1;stroke:#00154f;stroke-width:11.95234489px;stroke-linecap:butt;stroke-linejoin:miter;stroke-opacity:1"
       d="M 94.310233,172.01584 H 201.40063 l -0.28684,-69.04843 -0.0268,-3.636685 -0.17004,-3.538581 -0.0853,-2.298119 -0.19811,-2.756118 -0.36881,-3.538582 -0.42524,-3.307898 -0.61872,-3.905319 -0.61534,-2.848693 -0.47632,-2.25112 -0.61535,-2.388878 -0.57034,-2.06774 -0.51861,-1.562128 -0.47631,-1.286566 -0.75742,-1.975208 -0.47631,-1.286589 -0.51863,-1.240463 -1.804,-3.537642 -1.1403,-2.113077 -1.14034,-1.837974 -1.18562,-1.700236 -0.57036,-0.597268 -1.47216,-1.838084 -2.8485,-3.078459 -2.04229,-1.791916 -1.71043,-1.240092 -1.99124,-1.424347 -2.32311,-1.33269 -2.56136,-1.378224 -2.46782,-1.05621 -2.41956,-0.918414 -2.27776,-0.781216 -2.08763,-0.505619 -2.18135,-0.505616 -2.9429,-0.551752 -2.79967,-0.321133 -2.89383,-0.275028 -1.37858,-0.04689 -2.13589,-0.136031 h -2.18417 l -1.2821,-0.04688 -1.80402,0.04688 -1.7076,0.09163 -2.08482,0.233559 -1.65945,0.135966 -1.89759,0.233557 -1.65936,0.321137 -2.18136,0.321133 -1.61396,0.367555 -1.8976,0.551751 -1.9913,0.597593 -1.23395,0.460082 -1.28209,0.409806 -0.94735,0.409801 -1.28216,0.505611 -1.61397,0.826773 -1.28212,0.643414 -0.99563,0.643413 -0.94744,0.551758 -0.85375,0.505613 -1.18854,0.82675 -0.94735,0.688969 -1.08923,0.781238 -1.1857,1.057655 -1.14028,1.056231 -1.2821,1.149354 -0.61871,0.689536 -0.71205,0.781219 -0.90207,1.102049 -0.61869,0.735115 -1.32745,1.65407 -1.0439,1.562192 -1.23395,1.975209 -0.7601,1.286522 -0.94749,1.838039 -0.85371,1.60766 -0.80561,1.92972 -0.6187,1.469859 -0.474289,1.378223 -0.570341,1.424369 -0.476293,1.424326 -0.476311,1.700236 -0.283495,0.87259 -0.283475,1.332689 -0.521988,1.929981 -0.331852,1.700192 -0.569691,2.756426 -0.38023,2.297243 -0.331852,2.618687 -0.283495,1.929041 -0.227057,2.849589 -0.227058,2.34282 -0.113507,2.573986 -0.141781,2.204973 z"
       id="path3807-0-0-1"
       inkscape:connector-curvature="0" />
    <ellipse
       style="fill:#00154f;fill-opacity:1;stroke-width:7.56085157"
       id="path3717-7-2-2"
       cx="-192.21075"
       cy="52.469444"
       transform="rotate(-90)"
       rx="31.137365"
       ry="28.335382" />
    <ellipse
       style="fill:#00154f;fill-opacity:1;stroke-width:7.56085157"
       id="path3717-7-9-3-9"
       cx="-192.0901"
       cy="159.91408"
       transform="rotate(-90)"
       rx="31.137365"
       ry="28.335382" />
    <path
       style="fill:#f2bc94;fill-opacity:0.75294118;stroke:none;stroke-width:7.09794807px;stroke-linecap:butt;stroke-linejoin:miter;stroke-opacity:1"
       d="m 23.530064,156.68459 h 57.842727 l -0.15254,-45.08335 -0.0211,-2.37428 -0.0766,-2.3112 -0.0538,-1.5006 -0.102107,-1.79952 -0.203596,-2.31062 -0.229083,-2.159971 -0.333203,-2.5497 -0.335902,-1.85992 -0.257292,-1.469595 -0.333202,-1.559877 -0.307675,-1.349936 -0.28282,-1.019727 L 78.42656,88.4961 78.01677,87.205991 77.75948,86.365799 77.47666,85.55577 76.501907,83.24598 75.888563,81.866139 75.27254,80.666377 74.63099,79.556305 74.323316,79.168167 73.529184,77.968384 71.992018,75.95833 70.890022,74.788495 69.966115,73.978467 68.889563,73.048518 67.634817,72.178681 66.250338,71.278615 64.916706,70.589098 63.611092,69.989338 62.381853,69.479289 61.254329,69.15004 60.076021,68.820769 58.48786,68.459716 56.976139,68.250738 55.413424,68.069523 54.670307,68.038263 53.51738,67.947543 h -1.178371 l -0.692292,-0.03126 -0.974754,0.03126 -0.921291,0.06296 -1.12744,0.14799 -0.89591,0.09072 -1.025664,0.147989 -0.895825,0.208321 -1.178392,0.208322 -0.870423,0.238619 -1.025622,0.361033 -1.076594,0.388662 -0.667079,0.302165 -0.692208,0.271955 -0.511227,0.271955 -0.692294,0.32927 -0.870422,0.539626 -0.692208,0.419921 -0.536756,0.419922 -0.511229,0.361033 -0.460846,0.329271 -0.64155,0.539625 -0.511229,0.449606 -0.590495,0.51005 -0.641572,0.690631 -0.616022,0.689516 -0.692271,0.750438 -0.333202,0.450133 -0.384259,0.510028 -0.486374,0.719442 -0.335904,0.480341 -0.717736,1.080103 -0.562286,1.019682 -0.667079,1.290108 -0.409789,0.840195 -0.511902,1.199784 -0.460847,1.049936 -0.435296,1.260158 -0.335902,0.959877 -0.257292,0.900045 -0.308349,0.92997 -0.257291,0.92995 -0.257292,1.110008 -0.152539,0.569856 -0.152539,0.869835 -0.282147,1.26016 -0.178067,1.110028 -0.307673,1.799786 -0.203597,1.500331 -0.178068,1.709841 -0.152539,1.25985 -0.12701,1.86075 -0.127012,1.52971 -0.0538,1.6807 -0.0766,1.43938 z"
       id="path3807-75-8-3"
       inkscape:connector-curvature="0" />
    <path
       style="fill:#f2bc94;fill-opacity:0.75444839;stroke:none;stroke-width:7.90029335px;stroke-linecap:butt;stroke-linejoin:miter;stroke-opacity:1"
       d="m 115.61367,155.05463 h 64.49549 l -0.17808,-50.09063 -0.021,-2.63797 -0.0766,-2.567098 -0.0766,-1.667272 -0.10207,-1.999386 -0.22907,-2.567098 -0.2573,-2.399917 -0.37149,-2.832956 -0.37418,-2.066494 -0.2949,-1.632887 -0.37421,-1.733199 -0.33118,-1.50007 -0.3312,-1.133046 -0.29489,-0.93371 -0.4555,-1.433243 -0.29491,-0.933709 -0.33118,-0.899894 -1.08426,-2.566574 -0.68462,-1.533382 -0.68461,-1.332888 -0.71262,-1.23338 -0.3312,-0.431377 -0.88568,-1.33293 -1.71279,-2.23337 -1.22931,-1.300163 -1.03071,-0.899914 -1.19871,-1.033214 -1.39982,-0.966368 -1.54483,-1.00025 -1.48635,-0.766264 -1.45573,-0.66617 -1.37188,-0.56638 -1.25723,-0.365734 -1.3132,-0.365731 -1.77142,-0.40272 -1.68479,-0.230269 -1.74339,-0.198922 -0.82712,-0.03126 -1.28781,-0.102743 h -1.31328 l -0.77114,-0.03126 -1.08419,0.03126 -1.0308,0.0682 -1.25723,0.167663 -1.00022,0.102519 -1.14272,0.167662 -1.00022,0.23029 -1.31327,0.23027 -0.9722,0.264654 -1.14271,0.402215 -1.19868,0.431377 -0.7432,0.337075 -0.77113,0.300613 -0.57034,0.30059 -0.77114,0.365732 -0.97222,0.599674 -0.7712,0.466789 -0.60058,0.46681 -0.57036,0.402719 -0.5139,0.365733 -0.71256,0.599607 -0.57035,0.499621 -0.65902,0.566404 -0.71263,0.767313 -0.68462,0.766267 -0.77114,0.833636 -0.3715,0.500147 -0.42994,0.566359 -0.53943,0.799185 -0.3742,0.533176 -0.79909,1.200156 -0.62878,1.132981 -0.74321,1.433288 -0.45547,0.933752 -0.57034,1.332887 -0.51391,1.166864 -0.48637,1.399995 -0.3742,1.066461 -0.2949,1.00023 -0.33118,1.033212 -0.29559,1.033237 -0.29492,1.233381 -0.17809,0.633513 -0.17805,0.966432 -0.3312,1.399931 -0.17807,1.233447 -0.3312,1.999646 -0.22906,1.666989 -0.17807,1.899771 -0.17806,1.399732 -0.15255,2.067586 -0.15253,1.699363 -0.0766,1.867157 -0.0766,1.599581 z"
       id="path3807-75-9-9-1"
       inkscape:connector-curvature="0" />
    <ellipse
       style="fill:#f4af1b;fill-opacity:1;stroke:none;stroke-width:8.53453636;stroke-opacity:1"
       id="path3744-6-2-2-7-9"
       cx="-192.21075"
       cy="52.469444"
       rx="11.326428"
       ry="10.765893"
       transform="rotate(-90)" />
    <ellipse
       style="fill:#f4af1b;fill-opacity:1;stroke:none;stroke-width:8.53453636;stroke-opacity:1"
       id="path3744-6-2-2-7-3-4"
       cx="-192.0901"
       cy="159.91408"
       rx="11.326428"
       ry="10.765893"
       transform="rotate(-90)" />
  </g>
</svg>
